<mxfile host="Electron" modified="2025-09-25T05:32:55.895Z" agent="Mozilla/5.0 (Windows NT 10.0; Win64; x64) AppleWebKit/537.36 (KHTML, like Gecko) draw.io/24.2.5 Chrome/120.0.6099.109 Electron/28.1.0 Safari/537.36" etag="6-w9tdxJxtxP2PA8J0_3" version="24.2.5" type="device">
  <diagram id="C5RBs43oDa-KdzZeNtuy" name="Page-1">
    <mxGraphModel dx="1574" dy="965" grid="1" gridSize="10" guides="1" tooltips="1" connect="1" arrows="1" fold="1" page="1" pageScale="1" pageWidth="827" pageHeight="1169" math="0" shadow="0">
      <root>
        <mxCell id="WIyWlLk6GJQsqaUBKTNV-0" />
        <mxCell id="WIyWlLk6GJQsqaUBKTNV-1" parent="WIyWlLk6GJQsqaUBKTNV-0" />
        <mxCell id="whEPF7HF6ZPL5jePsMYo-0" value="" style="edgeStyle=orthogonalEdgeStyle;rounded=0;orthogonalLoop=1;jettySize=auto;html=1;" parent="WIyWlLk6GJQsqaUBKTNV-1" source="whEPF7HF6ZPL5jePsMYo-1" edge="1">
          <mxGeometry relative="1" as="geometry">
            <mxPoint x="414" y="200" as="targetPoint" />
          </mxGeometry>
        </mxCell>
        <mxCell id="whEPF7HF6ZPL5jePsMYo-1" value="INICIO&lt;br&gt;REGISTRO TUTORES" style="ellipse;whiteSpace=wrap;html=1;aspect=fixed;" parent="WIyWlLk6GJQsqaUBKTNV-1" vertex="1">
          <mxGeometry x="374" y="30" width="80" height="80" as="geometry" />
        </mxCell>
        <mxCell id="whEPF7HF6ZPL5jePsMYo-2" value="" style="edgeStyle=orthogonalEdgeStyle;rounded=0;orthogonalLoop=1;jettySize=auto;html=1;" parent="WIyWlLk6GJQsqaUBKTNV-1" source="whEPF7HF6ZPL5jePsMYo-3" target="whEPF7HF6ZPL5jePsMYo-5" edge="1">
          <mxGeometry relative="1" as="geometry" />
        </mxCell>
        <mxCell id="whEPF7HF6ZPL5jePsMYo-3" value="Se solicita nombres" style="rounded=1;whiteSpace=wrap;html=1;" parent="WIyWlLk6GJQsqaUBKTNV-1" vertex="1">
          <mxGeometry x="354" y="140" width="120" height="60" as="geometry" />
        </mxCell>
        <mxCell id="whEPF7HF6ZPL5jePsMYo-4" value="" style="edgeStyle=orthogonalEdgeStyle;rounded=0;orthogonalLoop=1;jettySize=auto;html=1;" parent="WIyWlLk6GJQsqaUBKTNV-1" source="whEPF7HF6ZPL5jePsMYo-5" target="whEPF7HF6ZPL5jePsMYo-7" edge="1">
          <mxGeometry relative="1" as="geometry" />
        </mxCell>
        <mxCell id="whEPF7HF6ZPL5jePsMYo-5" value="Se solicita apellido paterno" style="whiteSpace=wrap;html=1;rounded=1;" parent="WIyWlLk6GJQsqaUBKTNV-1" vertex="1">
          <mxGeometry x="354" y="220" width="120" height="60" as="geometry" />
        </mxCell>
        <mxCell id="whEPF7HF6ZPL5jePsMYo-6" value="" style="edgeStyle=orthogonalEdgeStyle;rounded=0;orthogonalLoop=1;jettySize=auto;html=1;" parent="WIyWlLk6GJQsqaUBKTNV-1" source="whEPF7HF6ZPL5jePsMYo-7" target="whEPF7HF6ZPL5jePsMYo-9" edge="1">
          <mxGeometry relative="1" as="geometry" />
        </mxCell>
        <mxCell id="whEPF7HF6ZPL5jePsMYo-7" value="Se solicita apellido materno" style="whiteSpace=wrap;html=1;rounded=1;" parent="WIyWlLk6GJQsqaUBKTNV-1" vertex="1">
          <mxGeometry x="354" y="300" width="120" height="60" as="geometry" />
        </mxCell>
        <mxCell id="whEPF7HF6ZPL5jePsMYo-8" value="" style="edgeStyle=orthogonalEdgeStyle;rounded=0;orthogonalLoop=1;jettySize=auto;html=1;" parent="WIyWlLk6GJQsqaUBKTNV-1" source="whEPF7HF6ZPL5jePsMYo-9" target="whEPF7HF6ZPL5jePsMYo-43" edge="1">
          <mxGeometry relative="1" as="geometry" />
        </mxCell>
        <mxCell id="whEPF7HF6ZPL5jePsMYo-9" value="Se solicita fecha de nacimiento" style="whiteSpace=wrap;html=1;rounded=1;" parent="WIyWlLk6GJQsqaUBKTNV-1" vertex="1">
          <mxGeometry x="354" y="400" width="120" height="60" as="geometry" />
        </mxCell>
        <mxCell id="whEPF7HF6ZPL5jePsMYo-10" value="" style="edgeStyle=orthogonalEdgeStyle;rounded=0;orthogonalLoop=1;jettySize=auto;html=1;" parent="WIyWlLk6GJQsqaUBKTNV-1" source="whEPF7HF6ZPL5jePsMYo-11" target="whEPF7HF6ZPL5jePsMYo-72" edge="1">
          <mxGeometry relative="1" as="geometry" />
        </mxCell>
        <mxCell id="whEPF7HF6ZPL5jePsMYo-11" value="Se solicita CURP" style="whiteSpace=wrap;html=1;rounded=1;" parent="WIyWlLk6GJQsqaUBKTNV-1" vertex="1">
          <mxGeometry x="354" y="580" width="120" height="60" as="geometry" />
        </mxCell>
        <mxCell id="whEPF7HF6ZPL5jePsMYo-12" value="" style="edgeStyle=orthogonalEdgeStyle;rounded=0;orthogonalLoop=1;jettySize=auto;html=1;" parent="WIyWlLk6GJQsqaUBKTNV-1" source="whEPF7HF6ZPL5jePsMYo-15" target="whEPF7HF6ZPL5jePsMYo-20" edge="1">
          <mxGeometry relative="1" as="geometry" />
        </mxCell>
        <mxCell id="whEPF7HF6ZPL5jePsMYo-13" value="SI" style="edgeLabel;html=1;align=center;verticalAlign=middle;resizable=0;points=[];" parent="whEPF7HF6ZPL5jePsMYo-12" vertex="1" connectable="0">
          <mxGeometry x="-0.3985" y="3" relative="1" as="geometry">
            <mxPoint y="1" as="offset" />
          </mxGeometry>
        </mxCell>
        <mxCell id="whEPF7HF6ZPL5jePsMYo-14" value="" style="edgeStyle=orthogonalEdgeStyle;rounded=0;orthogonalLoop=1;jettySize=auto;html=1;" parent="WIyWlLk6GJQsqaUBKTNV-1" source="whEPF7HF6ZPL5jePsMYo-15" target="whEPF7HF6ZPL5jePsMYo-22" edge="1">
          <mxGeometry relative="1" as="geometry" />
        </mxCell>
        <mxCell id="whEPF7HF6ZPL5jePsMYo-15" value="¿Las primera letra coincide con la primera letra del apellido paterno?" style="rhombus;whiteSpace=wrap;html=1;rounded=1;" parent="WIyWlLk6GJQsqaUBKTNV-1" vertex="1">
          <mxGeometry x="323.5" y="868" width="187" height="80" as="geometry" />
        </mxCell>
        <mxCell id="whEPF7HF6ZPL5jePsMYo-16" style="edgeStyle=orthogonalEdgeStyle;rounded=0;orthogonalLoop=1;jettySize=auto;html=1;exitX=0;exitY=0.5;exitDx=0;exitDy=0;entryX=0.5;entryY=1;entryDx=0;entryDy=0;" parent="WIyWlLk6GJQsqaUBKTNV-1" source="whEPF7HF6ZPL5jePsMYo-20" target="whEPF7HF6ZPL5jePsMYo-22" edge="1">
          <mxGeometry relative="1" as="geometry" />
        </mxCell>
        <mxCell id="whEPF7HF6ZPL5jePsMYo-17" value="NO" style="edgeLabel;html=1;align=center;verticalAlign=middle;resizable=0;points=[];" parent="whEPF7HF6ZPL5jePsMYo-16" vertex="1" connectable="0">
          <mxGeometry x="-0.2646" y="2" relative="1" as="geometry">
            <mxPoint as="offset" />
          </mxGeometry>
        </mxCell>
        <mxCell id="whEPF7HF6ZPL5jePsMYo-18" value="" style="edgeStyle=orthogonalEdgeStyle;rounded=0;orthogonalLoop=1;jettySize=auto;html=1;" parent="WIyWlLk6GJQsqaUBKTNV-1" source="whEPF7HF6ZPL5jePsMYo-20" target="whEPF7HF6ZPL5jePsMYo-27" edge="1">
          <mxGeometry relative="1" as="geometry" />
        </mxCell>
        <mxCell id="whEPF7HF6ZPL5jePsMYo-19" value="SI" style="edgeLabel;html=1;align=center;verticalAlign=middle;resizable=0;points=[];" parent="whEPF7HF6ZPL5jePsMYo-18" vertex="1" connectable="0">
          <mxGeometry x="0.0417" y="2" relative="1" as="geometry">
            <mxPoint as="offset" />
          </mxGeometry>
        </mxCell>
        <mxCell id="whEPF7HF6ZPL5jePsMYo-20" value="¿Segunda letra coincide con la primera vocal del apellido paterno?" style="rhombus;whiteSpace=wrap;html=1;rounded=1;" parent="WIyWlLk6GJQsqaUBKTNV-1" vertex="1">
          <mxGeometry x="324.5" y="988" width="187" height="80" as="geometry" />
        </mxCell>
        <mxCell id="whEPF7HF6ZPL5jePsMYo-21" style="edgeStyle=orthogonalEdgeStyle;rounded=0;orthogonalLoop=1;jettySize=auto;html=1;exitX=0.5;exitY=0;exitDx=0;exitDy=0;" parent="WIyWlLk6GJQsqaUBKTNV-1" source="whEPF7HF6ZPL5jePsMYo-22" edge="1">
          <mxGeometry relative="1" as="geometry">
            <mxPoint x="410" y="130" as="targetPoint" />
            <Array as="points">
              <mxPoint x="146" y="740" />
              <mxPoint x="146" y="130" />
            </Array>
          </mxGeometry>
        </mxCell>
        <mxCell id="whEPF7HF6ZPL5jePsMYo-22" value="CURP incorrecta, solicitar rectificar datos" style="whiteSpace=wrap;html=1;rounded=1;" parent="WIyWlLk6GJQsqaUBKTNV-1" vertex="1">
          <mxGeometry x="90" y="878" width="120" height="60" as="geometry" />
        </mxCell>
        <mxCell id="whEPF7HF6ZPL5jePsMYo-23" style="edgeStyle=orthogonalEdgeStyle;rounded=0;orthogonalLoop=1;jettySize=auto;html=1;exitX=0;exitY=0.5;exitDx=0;exitDy=0;" parent="WIyWlLk6GJQsqaUBKTNV-1" source="whEPF7HF6ZPL5jePsMYo-27" edge="1">
          <mxGeometry relative="1" as="geometry">
            <mxPoint x="150" y="1028" as="targetPoint" />
          </mxGeometry>
        </mxCell>
        <mxCell id="whEPF7HF6ZPL5jePsMYo-24" value="NO" style="edgeLabel;html=1;align=center;verticalAlign=middle;resizable=0;points=[];" parent="whEPF7HF6ZPL5jePsMYo-23" vertex="1" connectable="0">
          <mxGeometry x="-0.5433" y="-2" relative="1" as="geometry">
            <mxPoint as="offset" />
          </mxGeometry>
        </mxCell>
        <mxCell id="whEPF7HF6ZPL5jePsMYo-25" value="" style="edgeStyle=orthogonalEdgeStyle;rounded=0;orthogonalLoop=1;jettySize=auto;html=1;" parent="WIyWlLk6GJQsqaUBKTNV-1" source="whEPF7HF6ZPL5jePsMYo-27" target="whEPF7HF6ZPL5jePsMYo-32" edge="1">
          <mxGeometry relative="1" as="geometry" />
        </mxCell>
        <mxCell id="whEPF7HF6ZPL5jePsMYo-26" value="SI" style="edgeLabel;html=1;align=center;verticalAlign=middle;resizable=0;points=[];" parent="whEPF7HF6ZPL5jePsMYo-25" vertex="1" connectable="0">
          <mxGeometry x="-0.025" y="-3" relative="1" as="geometry">
            <mxPoint as="offset" />
          </mxGeometry>
        </mxCell>
        <mxCell id="whEPF7HF6ZPL5jePsMYo-27" value="¿Tercera letra coincide con primera letra del apellido materno?" style="rhombus;whiteSpace=wrap;html=1;rounded=1;" parent="WIyWlLk6GJQsqaUBKTNV-1" vertex="1">
          <mxGeometry x="324.5" y="1098" width="187" height="80" as="geometry" />
        </mxCell>
        <mxCell id="whEPF7HF6ZPL5jePsMYo-28" style="edgeStyle=orthogonalEdgeStyle;rounded=0;orthogonalLoop=1;jettySize=auto;html=1;exitX=0;exitY=0.5;exitDx=0;exitDy=0;" parent="WIyWlLk6GJQsqaUBKTNV-1" source="whEPF7HF6ZPL5jePsMYo-32" edge="1">
          <mxGeometry relative="1" as="geometry">
            <mxPoint x="154" y="1138" as="targetPoint" />
          </mxGeometry>
        </mxCell>
        <mxCell id="whEPF7HF6ZPL5jePsMYo-29" value="NO" style="edgeLabel;html=1;align=center;verticalAlign=middle;resizable=0;points=[];" parent="whEPF7HF6ZPL5jePsMYo-28" vertex="1" connectable="0">
          <mxGeometry x="-0.5074" y="3" relative="1" as="geometry">
            <mxPoint as="offset" />
          </mxGeometry>
        </mxCell>
        <mxCell id="whEPF7HF6ZPL5jePsMYo-30" value="" style="edgeStyle=orthogonalEdgeStyle;rounded=0;orthogonalLoop=1;jettySize=auto;html=1;" parent="WIyWlLk6GJQsqaUBKTNV-1" source="whEPF7HF6ZPL5jePsMYo-32" edge="1">
          <mxGeometry relative="1" as="geometry">
            <mxPoint x="417" y="1328" as="targetPoint" />
          </mxGeometry>
        </mxCell>
        <mxCell id="whEPF7HF6ZPL5jePsMYo-31" value="SI" style="edgeLabel;html=1;align=center;verticalAlign=middle;resizable=0;points=[];" parent="whEPF7HF6ZPL5jePsMYo-30" vertex="1" connectable="0">
          <mxGeometry x="-0.0565" y="-1" relative="1" as="geometry">
            <mxPoint as="offset" />
          </mxGeometry>
        </mxCell>
        <mxCell id="whEPF7HF6ZPL5jePsMYo-32" value="¿Cuarta letra coincide con iicial del nombre?" style="rhombus;whiteSpace=wrap;html=1;rounded=1;" parent="WIyWlLk6GJQsqaUBKTNV-1" vertex="1">
          <mxGeometry x="324.5" y="1218" width="187" height="80" as="geometry" />
        </mxCell>
        <mxCell id="whEPF7HF6ZPL5jePsMYo-33" style="edgeStyle=orthogonalEdgeStyle;rounded=0;orthogonalLoop=1;jettySize=auto;html=1;exitX=0;exitY=0.5;exitDx=0;exitDy=0;" parent="WIyWlLk6GJQsqaUBKTNV-1" edge="1">
          <mxGeometry relative="1" as="geometry">
            <mxPoint x="154" y="1268" as="targetPoint" />
            <mxPoint x="272" y="1398" as="sourcePoint" />
          </mxGeometry>
        </mxCell>
        <mxCell id="whEPF7HF6ZPL5jePsMYo-34" value="NO" style="edgeLabel;html=1;align=center;verticalAlign=middle;resizable=0;points=[];" parent="whEPF7HF6ZPL5jePsMYo-33" vertex="1" connectable="0">
          <mxGeometry x="-0.4537" y="-1" relative="1" as="geometry">
            <mxPoint as="offset" />
          </mxGeometry>
        </mxCell>
        <mxCell id="whEPF7HF6ZPL5jePsMYo-35" value="" style="edgeStyle=orthogonalEdgeStyle;rounded=0;orthogonalLoop=1;jettySize=auto;html=1;" parent="WIyWlLk6GJQsqaUBKTNV-1" target="whEPF7HF6ZPL5jePsMYo-41" edge="1">
          <mxGeometry relative="1" as="geometry">
            <mxPoint x="417" y="1468" as="sourcePoint" />
          </mxGeometry>
        </mxCell>
        <mxCell id="whEPF7HF6ZPL5jePsMYo-36" value="SI" style="edgeLabel;html=1;align=center;verticalAlign=middle;resizable=0;points=[];" parent="whEPF7HF6ZPL5jePsMYo-35" vertex="1" connectable="0">
          <mxGeometry x="-0.2522" y="3" relative="1" as="geometry">
            <mxPoint as="offset" />
          </mxGeometry>
        </mxCell>
        <mxCell id="whEPF7HF6ZPL5jePsMYo-37" style="edgeStyle=orthogonalEdgeStyle;rounded=0;orthogonalLoop=1;jettySize=auto;html=1;exitX=0;exitY=0.5;exitDx=0;exitDy=0;" parent="WIyWlLk6GJQsqaUBKTNV-1" source="whEPF7HF6ZPL5jePsMYo-41" edge="1">
          <mxGeometry relative="1" as="geometry">
            <mxPoint x="154" y="1398" as="targetPoint" />
          </mxGeometry>
        </mxCell>
        <mxCell id="whEPF7HF6ZPL5jePsMYo-38" value="NO" style="edgeLabel;html=1;align=center;verticalAlign=middle;resizable=0;points=[];" parent="whEPF7HF6ZPL5jePsMYo-37" vertex="1" connectable="0">
          <mxGeometry x="-0.4731" y="2" relative="1" as="geometry">
            <mxPoint as="offset" />
          </mxGeometry>
        </mxCell>
        <mxCell id="whEPF7HF6ZPL5jePsMYo-39" value="" style="edgeStyle=orthogonalEdgeStyle;rounded=0;orthogonalLoop=1;jettySize=auto;html=1;" parent="WIyWlLk6GJQsqaUBKTNV-1" source="whEPF7HF6ZPL5jePsMYo-41" target="whEPF7HF6ZPL5jePsMYo-48" edge="1">
          <mxGeometry relative="1" as="geometry" />
        </mxCell>
        <mxCell id="whEPF7HF6ZPL5jePsMYo-40" value="SI" style="edgeLabel;html=1;align=center;verticalAlign=middle;resizable=0;points=[];" parent="whEPF7HF6ZPL5jePsMYo-39" vertex="1" connectable="0">
          <mxGeometry x="0.0083" relative="1" as="geometry">
            <mxPoint as="offset" />
          </mxGeometry>
        </mxCell>
        <mxCell id="whEPF7HF6ZPL5jePsMYo-41" value="¿decimoprimer digito es una letra y coincide con el genero?" style="rhombus;whiteSpace=wrap;html=1;rounded=1;" parent="WIyWlLk6GJQsqaUBKTNV-1" vertex="1">
          <mxGeometry x="317" y="1508" width="202" height="90" as="geometry" />
        </mxCell>
        <mxCell id="whEPF7HF6ZPL5jePsMYo-42" value="" style="edgeStyle=orthogonalEdgeStyle;rounded=0;orthogonalLoop=1;jettySize=auto;html=1;" parent="WIyWlLk6GJQsqaUBKTNV-1" source="whEPF7HF6ZPL5jePsMYo-43" target="whEPF7HF6ZPL5jePsMYo-11" edge="1">
          <mxGeometry relative="1" as="geometry" />
        </mxCell>
        <mxCell id="whEPF7HF6ZPL5jePsMYo-43" value="Se solicita genero" style="whiteSpace=wrap;html=1;rounded=1;" parent="WIyWlLk6GJQsqaUBKTNV-1" vertex="1">
          <mxGeometry x="354" y="490" width="120" height="60" as="geometry" />
        </mxCell>
        <mxCell id="whEPF7HF6ZPL5jePsMYo-44" style="edgeStyle=orthogonalEdgeStyle;rounded=0;orthogonalLoop=1;jettySize=auto;html=1;exitX=0;exitY=0.5;exitDx=0;exitDy=0;" parent="WIyWlLk6GJQsqaUBKTNV-1" source="whEPF7HF6ZPL5jePsMYo-48" edge="1">
          <mxGeometry relative="1" as="geometry">
            <mxPoint x="160" y="1558" as="targetPoint" />
          </mxGeometry>
        </mxCell>
        <mxCell id="whEPF7HF6ZPL5jePsMYo-45" value="NO" style="edgeLabel;html=1;align=center;verticalAlign=middle;resizable=0;points=[];" parent="whEPF7HF6ZPL5jePsMYo-44" vertex="1" connectable="0">
          <mxGeometry x="-0.3875" y="-1" relative="1" as="geometry">
            <mxPoint as="offset" />
          </mxGeometry>
        </mxCell>
        <mxCell id="whEPF7HF6ZPL5jePsMYo-46" value="" style="edgeStyle=orthogonalEdgeStyle;rounded=0;orthogonalLoop=1;jettySize=auto;html=1;" parent="WIyWlLk6GJQsqaUBKTNV-1" source="whEPF7HF6ZPL5jePsMYo-48" target="whEPF7HF6ZPL5jePsMYo-53" edge="1">
          <mxGeometry relative="1" as="geometry" />
        </mxCell>
        <mxCell id="whEPF7HF6ZPL5jePsMYo-47" value="SI" style="edgeLabel;html=1;align=center;verticalAlign=middle;resizable=0;points=[];" parent="whEPF7HF6ZPL5jePsMYo-46" vertex="1" connectable="0">
          <mxGeometry x="-0.1083" relative="1" as="geometry">
            <mxPoint as="offset" />
          </mxGeometry>
        </mxCell>
        <mxCell id="whEPF7HF6ZPL5jePsMYo-48" value="¿decimocuarto digito es la primera consonante interna del apellido paterno?" style="rhombus;whiteSpace=wrap;html=1;rounded=1;" parent="WIyWlLk6GJQsqaUBKTNV-1" vertex="1">
          <mxGeometry x="317" y="1638" width="202" height="90" as="geometry" />
        </mxCell>
        <mxCell id="whEPF7HF6ZPL5jePsMYo-49" style="edgeStyle=orthogonalEdgeStyle;rounded=0;orthogonalLoop=1;jettySize=auto;html=1;exitX=0;exitY=0.5;exitDx=0;exitDy=0;" parent="WIyWlLk6GJQsqaUBKTNV-1" source="whEPF7HF6ZPL5jePsMYo-53" edge="1">
          <mxGeometry relative="1" as="geometry">
            <mxPoint x="160" y="1688" as="targetPoint" />
          </mxGeometry>
        </mxCell>
        <mxCell id="whEPF7HF6ZPL5jePsMYo-50" value="NO" style="edgeLabel;html=1;align=center;verticalAlign=middle;resizable=0;points=[];" parent="whEPF7HF6ZPL5jePsMYo-49" vertex="1" connectable="0">
          <mxGeometry x="-0.5931" relative="1" as="geometry">
            <mxPoint x="1" as="offset" />
          </mxGeometry>
        </mxCell>
        <mxCell id="whEPF7HF6ZPL5jePsMYo-51" value="" style="edgeStyle=orthogonalEdgeStyle;rounded=0;orthogonalLoop=1;jettySize=auto;html=1;" parent="WIyWlLk6GJQsqaUBKTNV-1" source="whEPF7HF6ZPL5jePsMYo-53" target="whEPF7HF6ZPL5jePsMYo-57" edge="1">
          <mxGeometry relative="1" as="geometry" />
        </mxCell>
        <mxCell id="whEPF7HF6ZPL5jePsMYo-52" value="SI" style="edgeLabel;html=1;align=center;verticalAlign=middle;resizable=0;points=[];" parent="whEPF7HF6ZPL5jePsMYo-51" vertex="1" connectable="0">
          <mxGeometry x="-0.0917" y="4" relative="1" as="geometry">
            <mxPoint as="offset" />
          </mxGeometry>
        </mxCell>
        <mxCell id="whEPF7HF6ZPL5jePsMYo-53" value="¿decimoquinto digito es la primera consonante interna del apellido materno?" style="rhombus;whiteSpace=wrap;html=1;rounded=1;" parent="WIyWlLk6GJQsqaUBKTNV-1" vertex="1">
          <mxGeometry x="317" y="1762" width="202" height="90" as="geometry" />
        </mxCell>
        <mxCell id="whEPF7HF6ZPL5jePsMYo-54" style="edgeStyle=orthogonalEdgeStyle;rounded=0;orthogonalLoop=1;jettySize=auto;html=1;exitX=0;exitY=0.5;exitDx=0;exitDy=0;" parent="WIyWlLk6GJQsqaUBKTNV-1" source="whEPF7HF6ZPL5jePsMYo-57" edge="1">
          <mxGeometry relative="1" as="geometry">
            <mxPoint x="160" y="1808" as="targetPoint" />
          </mxGeometry>
        </mxCell>
        <mxCell id="whEPF7HF6ZPL5jePsMYo-55" value="NO" style="edgeLabel;html=1;align=center;verticalAlign=middle;resizable=0;points=[];" parent="whEPF7HF6ZPL5jePsMYo-54" vertex="1" connectable="0">
          <mxGeometry x="-0.6133" y="1" relative="1" as="geometry">
            <mxPoint x="-1" as="offset" />
          </mxGeometry>
        </mxCell>
        <mxCell id="whEPF7HF6ZPL5jePsMYo-91" value="" style="edgeStyle=orthogonalEdgeStyle;rounded=0;orthogonalLoop=1;jettySize=auto;html=1;" parent="WIyWlLk6GJQsqaUBKTNV-1" source="whEPF7HF6ZPL5jePsMYo-57" target="whEPF7HF6ZPL5jePsMYo-90" edge="1">
          <mxGeometry relative="1" as="geometry" />
        </mxCell>
        <mxCell id="whEPF7HF6ZPL5jePsMYo-57" value="¿decimosexto digito es la primera consonante interna del primer nombre?" style="rhombus;whiteSpace=wrap;html=1;rounded=1;" parent="WIyWlLk6GJQsqaUBKTNV-1" vertex="1">
          <mxGeometry x="316" y="1878" width="202" height="90" as="geometry" />
        </mxCell>
        <mxCell id="whEPF7HF6ZPL5jePsMYo-58" value="¿Digitos del 5 al 10 coinciden con la fecha de nacimiento en formato AA/MM/DD?" style="rhombus;whiteSpace=wrap;html=1;rounded=1;" parent="WIyWlLk6GJQsqaUBKTNV-1" vertex="1">
          <mxGeometry x="272.75" y="1328" width="290.5" height="140" as="geometry" />
        </mxCell>
        <mxCell id="whEPF7HF6ZPL5jePsMYo-68" value="" style="edgeStyle=orthogonalEdgeStyle;rounded=0;orthogonalLoop=1;jettySize=auto;html=1;" parent="WIyWlLk6GJQsqaUBKTNV-1" source="whEPF7HF6ZPL5jePsMYo-72" target="whEPF7HF6ZPL5jePsMYo-15" edge="1">
          <mxGeometry relative="1" as="geometry" />
        </mxCell>
        <mxCell id="whEPF7HF6ZPL5jePsMYo-69" value="NO" style="edgeLabel;html=1;align=center;verticalAlign=middle;resizable=0;points=[];" parent="whEPF7HF6ZPL5jePsMYo-68" vertex="1" connectable="0">
          <mxGeometry x="-0.3626" y="-1" relative="1" as="geometry">
            <mxPoint as="offset" />
          </mxGeometry>
        </mxCell>
        <mxCell id="whEPF7HF6ZPL5jePsMYo-70" value="" style="edgeStyle=orthogonalEdgeStyle;rounded=0;orthogonalLoop=1;jettySize=auto;html=1;" parent="WIyWlLk6GJQsqaUBKTNV-1" source="whEPF7HF6ZPL5jePsMYo-72" target="whEPF7HF6ZPL5jePsMYo-74" edge="1">
          <mxGeometry relative="1" as="geometry" />
        </mxCell>
        <mxCell id="whEPF7HF6ZPL5jePsMYo-71" value="SI" style="edgeLabel;html=1;align=center;verticalAlign=middle;resizable=0;points=[];" parent="whEPF7HF6ZPL5jePsMYo-70" vertex="1" connectable="0">
          <mxGeometry x="-0.1647" y="2" relative="1" as="geometry">
            <mxPoint as="offset" />
          </mxGeometry>
        </mxCell>
        <mxCell id="whEPF7HF6ZPL5jePsMYo-72" value="¿La CURP ya se encuentra en el sistema?" style="rhombus;whiteSpace=wrap;html=1;rounded=1;" parent="WIyWlLk6GJQsqaUBKTNV-1" vertex="1">
          <mxGeometry x="311" y="670" width="206" height="110" as="geometry" />
        </mxCell>
        <mxCell id="whEPF7HF6ZPL5jePsMYo-73" value="" style="edgeStyle=orthogonalEdgeStyle;rounded=0;orthogonalLoop=1;jettySize=auto;html=1;" parent="WIyWlLk6GJQsqaUBKTNV-1" source="whEPF7HF6ZPL5jePsMYo-74" target="whEPF7HF6ZPL5jePsMYo-80" edge="1">
          <mxGeometry relative="1" as="geometry" />
        </mxCell>
        <mxCell id="whEPF7HF6ZPL5jePsMYo-74" value="Mostrar mensaje &quot;Padre ya registrado&quot;" style="whiteSpace=wrap;html=1;rounded=1;" parent="WIyWlLk6GJQsqaUBKTNV-1" vertex="1">
          <mxGeometry x="600" y="695" width="120" height="60" as="geometry" />
        </mxCell>
        <mxCell id="whEPF7HF6ZPL5jePsMYo-75" value="" style="edgeStyle=orthogonalEdgeStyle;rounded=0;orthogonalLoop=1;jettySize=auto;html=1;entryX=1;entryY=0.5;entryDx=0;entryDy=0;" parent="WIyWlLk6GJQsqaUBKTNV-1" source="whEPF7HF6ZPL5jePsMYo-80" target="whEPF7HF6ZPL5jePsMYo-89" edge="1">
          <mxGeometry relative="1" as="geometry">
            <mxPoint x="860" y="845" as="targetPoint" />
            <Array as="points">
              <mxPoint x="860" y="2640" />
              <mxPoint x="457" y="2640" />
            </Array>
          </mxGeometry>
        </mxCell>
        <mxCell id="whEPF7HF6ZPL5jePsMYo-76" value="NO" style="edgeLabel;html=1;align=center;verticalAlign=middle;resizable=0;points=[];" parent="whEPF7HF6ZPL5jePsMYo-75" vertex="1" connectable="0">
          <mxGeometry x="0.0803" y="1" relative="1" as="geometry">
            <mxPoint as="offset" />
          </mxGeometry>
        </mxCell>
        <mxCell id="whEPF7HF6ZPL5jePsMYo-77" value="NO" style="edgeLabel;html=1;align=center;verticalAlign=middle;resizable=0;points=[];" parent="whEPF7HF6ZPL5jePsMYo-75" vertex="1" connectable="0">
          <mxGeometry x="-0.81" relative="1" as="geometry">
            <mxPoint y="-1" as="offset" />
          </mxGeometry>
        </mxCell>
        <mxCell id="whEPF7HF6ZPL5jePsMYo-78" style="edgeStyle=orthogonalEdgeStyle;rounded=0;orthogonalLoop=1;jettySize=auto;html=1;exitX=1;exitY=0.5;exitDx=0;exitDy=0;" parent="WIyWlLk6GJQsqaUBKTNV-1" source="whEPF7HF6ZPL5jePsMYo-80" edge="1">
          <mxGeometry relative="1" as="geometry">
            <mxPoint x="420" y="130" as="targetPoint" />
            <Array as="points">
              <mxPoint x="860" y="725" />
              <mxPoint x="860" y="130" />
            </Array>
          </mxGeometry>
        </mxCell>
        <mxCell id="whEPF7HF6ZPL5jePsMYo-79" value="SI" style="edgeLabel;html=1;align=center;verticalAlign=middle;resizable=0;points=[];" parent="whEPF7HF6ZPL5jePsMYo-78" vertex="1" connectable="0">
          <mxGeometry x="-0.8209" y="-10" relative="1" as="geometry">
            <mxPoint y="-1" as="offset" />
          </mxGeometry>
        </mxCell>
        <mxCell id="whEPF7HF6ZPL5jePsMYo-80" value="¿Desea corregir?" style="rhombus;whiteSpace=wrap;html=1;rounded=1;" parent="WIyWlLk6GJQsqaUBKTNV-1" vertex="1">
          <mxGeometry x="820" y="685" width="80" height="80" as="geometry" />
        </mxCell>
        <mxCell id="whEPF7HF6ZPL5jePsMYo-81" value="" style="edgeStyle=orthogonalEdgeStyle;rounded=0;orthogonalLoop=1;jettySize=auto;html=1;" parent="WIyWlLk6GJQsqaUBKTNV-1" source="whEPF7HF6ZPL5jePsMYo-82" edge="1">
          <mxGeometry relative="1" as="geometry">
            <mxPoint x="417.03703703703695" y="2470" as="targetPoint" />
          </mxGeometry>
        </mxCell>
        <mxCell id="whEPF7HF6ZPL5jePsMYo-82" value="Se asigna un identificador" style="whiteSpace=wrap;html=1;rounded=1;" parent="WIyWlLk6GJQsqaUBKTNV-1" vertex="1">
          <mxGeometry x="357" y="2380" width="120" height="60" as="geometry" />
        </mxCell>
        <mxCell id="whEPF7HF6ZPL5jePsMYo-87" value="" style="edgeStyle=orthogonalEdgeStyle;rounded=0;orthogonalLoop=1;jettySize=auto;html=1;" parent="WIyWlLk6GJQsqaUBKTNV-1" target="whEPF7HF6ZPL5jePsMYo-89" edge="1">
          <mxGeometry relative="1" as="geometry">
            <mxPoint x="417" y="2528" as="sourcePoint" />
          </mxGeometry>
        </mxCell>
        <mxCell id="whEPF7HF6ZPL5jePsMYo-89" value="FIN" style="ellipse;whiteSpace=wrap;html=1;rounded=1;" parent="WIyWlLk6GJQsqaUBKTNV-1" vertex="1">
          <mxGeometry x="377" y="2598" width="80" height="80" as="geometry" />
        </mxCell>
        <mxCell id="whEPF7HF6ZPL5jePsMYo-93" value="" style="edgeStyle=orthogonalEdgeStyle;rounded=0;orthogonalLoop=1;jettySize=auto;html=1;" parent="WIyWlLk6GJQsqaUBKTNV-1" source="whEPF7HF6ZPL5jePsMYo-90" target="whEPF7HF6ZPL5jePsMYo-92" edge="1">
          <mxGeometry relative="1" as="geometry" />
        </mxCell>
        <mxCell id="whEPF7HF6ZPL5jePsMYo-90" value="Se solicita el numero telefonico" style="whiteSpace=wrap;html=1;rounded=1;" parent="WIyWlLk6GJQsqaUBKTNV-1" vertex="1">
          <mxGeometry x="358" y="1990" width="120" height="60" as="geometry" />
        </mxCell>
        <mxCell id="whEPF7HF6ZPL5jePsMYo-94" style="edgeStyle=orthogonalEdgeStyle;rounded=0;orthogonalLoop=1;jettySize=auto;html=1;exitX=0;exitY=0.5;exitDx=0;exitDy=0;entryX=0;entryY=0.5;entryDx=0;entryDy=0;" parent="WIyWlLk6GJQsqaUBKTNV-1" source="whEPF7HF6ZPL5jePsMYo-92" target="whEPF7HF6ZPL5jePsMYo-90" edge="1">
          <mxGeometry relative="1" as="geometry" />
        </mxCell>
        <mxCell id="whEPF7HF6ZPL5jePsMYo-95" value="NO" style="edgeLabel;html=1;align=center;verticalAlign=middle;resizable=0;points=[];" parent="whEPF7HF6ZPL5jePsMYo-94" vertex="1" connectable="0">
          <mxGeometry x="-0.1294" relative="1" as="geometry">
            <mxPoint as="offset" />
          </mxGeometry>
        </mxCell>
        <mxCell id="whEPF7HF6ZPL5jePsMYo-97" value="" style="edgeStyle=orthogonalEdgeStyle;rounded=0;orthogonalLoop=1;jettySize=auto;html=1;" parent="WIyWlLk6GJQsqaUBKTNV-1" source="whEPF7HF6ZPL5jePsMYo-92" target="whEPF7HF6ZPL5jePsMYo-96" edge="1">
          <mxGeometry relative="1" as="geometry" />
        </mxCell>
        <mxCell id="whEPF7HF6ZPL5jePsMYo-99" value="SI" style="edgeLabel;html=1;align=center;verticalAlign=middle;resizable=0;points=[];" parent="whEPF7HF6ZPL5jePsMYo-97" vertex="1" connectable="0">
          <mxGeometry x="-0.2787" y="3" relative="1" as="geometry">
            <mxPoint as="offset" />
          </mxGeometry>
        </mxCell>
        <mxCell id="whEPF7HF6ZPL5jePsMYo-92" value="¿Son unicamente numeros?" style="rhombus;whiteSpace=wrap;html=1;rounded=1;" parent="WIyWlLk6GJQsqaUBKTNV-1" vertex="1">
          <mxGeometry x="378" y="2120" width="80" height="80" as="geometry" />
        </mxCell>
        <mxCell id="whEPF7HF6ZPL5jePsMYo-98" value="" style="edgeStyle=orthogonalEdgeStyle;rounded=0;orthogonalLoop=1;jettySize=auto;html=1;" parent="WIyWlLk6GJQsqaUBKTNV-1" source="whEPF7HF6ZPL5jePsMYo-96" target="whEPF7HF6ZPL5jePsMYo-82" edge="1">
          <mxGeometry relative="1" as="geometry" />
        </mxCell>
        <mxCell id="whEPF7HF6ZPL5jePsMYo-96" value="Se solicita direccion de correo electronico" style="whiteSpace=wrap;html=1;rounded=1;" parent="WIyWlLk6GJQsqaUBKTNV-1" vertex="1">
          <mxGeometry x="357" y="2260" width="120" height="60" as="geometry" />
        </mxCell>
        <mxCell id="KHTiYSOKRPh0OxVMva0l-0" value="Se guarda el registro" style="shape=cylinder3;whiteSpace=wrap;html=1;boundedLbl=1;backgroundOutline=1;size=15;" vertex="1" parent="WIyWlLk6GJQsqaUBKTNV-1">
          <mxGeometry x="387" y="2470" width="60" height="80" as="geometry" />
        </mxCell>
      </root>
    </mxGraphModel>
  </diagram>
</mxfile>
